<?xml version="1.0" standalone="no"?><!DOCTYPE svg PUBLIC "-//W3C//DTD SVG 1.1//EN" "http://www.w3.org/Graphics/SVG/1.1/DTD/svg11.dtd"><svg t="1685177593425" class="icon" viewBox="0 0 1024 1024" version="1.1" xmlns="http://www.w3.org/2000/svg" p-id="2317" xmlns:xlink="http://www.w3.org/1999/xlink" width="22" height="22"><path d="M896 217.6h-64V121.6c0-38.4-25.6-64-64-64H160c-38.4 0-64 25.6-64 64v256c0 38.4 25.6 64 64 64H768c38.4 0 64-25.6 64-64V281.6h32v224H448c-19.2 0-32 12.8-32 32v96H384c-19.2 0-32 12.8-32 32v256c0 19.2 12.8 32 32 32h128c19.2 0 32-12.8 32-32v-256c0-19.2-12.8-32-32-32h-32v-64H896c19.2 0 32-12.8 32-32V249.6c0-19.2-12.8-32-32-32z m-128 160H160v-256H768v256z" fill="#000" p-id="2318"></path></svg>